<?xml version="1.0" encoding="UTF-8" standalone="no"?>
<!-- Created with Inkscape (http://www.inkscape.org/) -->
<svg
   xmlns:dc="http://purl.org/dc/elements/1.1/"
   xmlns:cc="http://creativecommons.org/ns#"
   xmlns:rdf="http://www.w3.org/1999/02/22-rdf-syntax-ns#"
   xmlns:svg="http://www.w3.org/2000/svg"
   xmlns="http://www.w3.org/2000/svg"
   xmlns:sodipodi="http://sodipodi.sourceforge.net/DTD/sodipodi-0.dtd"
   xmlns:inkscape="http://www.inkscape.org/namespaces/inkscape"
   width="256"
   height="256"
   id="svg5294"
   sodipodi:version="0.32"
   inkscape:version="0.46"
   version="1.0"
   sodipodi:docname="pictograms-nps-misc-wood_gathering.svg"
   inkscape:output_extension="org.inkscape.output.svg.inkscape">
  <defs
     id="defs5296">
    <inkscape:perspective
       sodipodi:type="inkscape:persp3d"
       inkscape:vp_x="0 : 526.18109 : 1"
       inkscape:vp_y="0 : 1000 : 0"
       inkscape:vp_z="744.09448 : 526.18109 : 1"
       inkscape:persp3d-origin="372.04724 : 350.78739 : 1"
       id="perspective5302" />
  </defs>
  <sodipodi:namedview
     id="base"
     pagecolor="#ffffff"
     bordercolor="#666666"
     borderopacity="1.0"
     gridtolerance="10000"
     guidetolerance="10"
     objecttolerance="10"
     inkscape:pageopacity="0.0"
     inkscape:pageshadow="2"
     inkscape:zoom="0.98994949"
     inkscape:cx="112.80911"
     inkscape:cy="62.857143"
     inkscape:document-units="px"
     inkscape:current-layer="layer1"
     showgrid="false"
     inkscape:window-width="725"
     inkscape:window-height="674"
     inkscape:window-x="1"
     inkscape:window-y="309" />
  <metadata
     id="metadata5299">
    <rdf:RDF>
      <cc:Work
         rdf:about="">
        <dc:format>image/svg+xml</dc:format>
        <dc:type
           rdf:resource="http://purl.org/dc/dcmitype/StillImage" />
      </cc:Work>
    </rdf:RDF>
  </metadata>
  <g
     inkscape:label="Layer 1"
     inkscape:groupmode="layer"
     id="layer1">
    <g
       id="g7718"
       transform="matrix(25.882115,0,0,-25.882115,30.59266,256)">
      <path
         d="M 0,0 C -0.652,0 -1.182,0.531 -1.182,1.184 L -1.182,8.711 C -1.182,9.363 -0.652,9.891 0,9.891 L 7.525,9.891 C 8.178,9.891 8.709,9.363 8.709,8.711 L 8.709,1.184 C 8.709,0.531 8.178,0 7.525,0 L 0,0 z"
         style="fill:#231f20;fill-opacity:1;fill-rule:nonzero;stroke:none"
         id="path7720" />
    </g>
    <g
       id="g7722"
       transform="matrix(25.882115,0,0,-25.882115,30.59266,5.1894676)">
      <path
         d="M 0,0 C -0.541,0 -0.981,-0.439 -0.981,-0.979 L -0.981,-8.507 C -0.981,-9.049 -0.541,-9.49 0,-9.49 L 7.525,-9.49 C 8.067,-9.49 8.509,-9.049 8.509,-8.507 L 8.509,-0.979 C 8.509,-0.439 8.067,0 7.525,0 L 0,0 z"
         style="fill:#ffffff;fill-opacity:1;fill-rule:nonzero;stroke:none"
         id="path7724" />
    </g>
    <g
       id="g7726"
       transform="matrix(25.882115,0,0,-25.882115,101.71671,54.655573)">
      <path
         d="M 0,0 C -0.369,0 -0.668,0.301 -0.668,0.67 C -0.668,1.039 -0.369,1.338 0,1.338 C 0.369,1.338 0.67,1.039 0.67,0.67 C 0.67,0.301 0.369,0 0,0"
         style="fill:#231f20;fill-opacity:1;fill-rule:nonzero;stroke:none"
         id="path7728" />
    </g>
    <g
       id="g7730"
       transform="matrix(25.882115,0,0,-25.882115,180.32359,89.078786)">
      <path
         d="M 0,0 L -1.043,0 C -1.156,0.113 -1.816,0.771 -1.98,0.936 C -1.99,0.947 -2.045,0.998 -2.059,1.006 C -2.203,1.121 -2.387,1.191 -2.586,1.191 L -3.82,1.191 C -4.34,1.191 -4.686,0.756 -4.686,0.313 L -4.686,-1.73 C -4.688,-2.133 -4.162,-2.133 -4.162,-1.73 L -4.162,0.27 L -3.914,0.27 L -3.912,-5.154 C -3.912,-5.361 -3.744,-5.529 -3.537,-5.529 C -3.33,-5.529 -3.162,-5.361 -3.162,-5.154 L -3.162,-2.01 L -2.912,-2.01 L -2.912,-5.154 C -2.912,-5.361 -2.744,-5.529 -2.537,-5.529 C -2.33,-5.529 -2.162,-5.361 -2.162,-5.154 L -2.162,0.389 L -1.332,-0.441 C -1.285,-0.49 -1.219,-0.516 -1.15,-0.516 L 0,-0.516 C 0.143,-0.516 0.26,-0.4 0.26,-0.26 C 0.26,-0.115 0.143,0 0,0"
         style="fill:#231f20;fill-opacity:1;fill-rule:nonzero;stroke:none"
         id="path7732" />
    </g>
    <g
       id="g7734"
       transform="matrix(25.882115,0,0,-25.882115,79.375478,110.96719)">
      <path
         d="M 0,0 L -1.65,-1.65 C -1.695,-1.695 -1.695,-1.768 -1.65,-1.813 C -1.605,-1.857 -1.531,-1.859 -1.486,-1.813 L -1.113,-1.439 L -1.113,-1.838 L -1.547,-2.271 C -1.574,-2.299 -1.574,-2.342 -1.547,-2.369 C -1.52,-2.396 -1.475,-2.396 -1.447,-2.369 L -1.113,-2.033 L -1.111,-3.043 C -1.111,-3.076 -1.084,-3.104 -1.051,-3.104 C -1.016,-3.104 -0.988,-3.076 -0.988,-3.043 L -0.99,-2.531 L -0.729,-2.793 C -0.711,-2.811 -0.682,-2.811 -0.664,-2.793 C -0.646,-2.775 -0.646,-2.746 -0.664,-2.729 L -0.928,-2.463 L -0.928,-1.256 L 0.164,-0.162 L 0,0 z"
         style="fill:#231f20;fill-opacity:1;fill-rule:nonzero;stroke:none"
         id="path7736" />
    </g>
    <g
       id="g7738"
       transform="matrix(25.882115,0,0,-25.882115,230.11788,79.372993)">
      <path
         d="M 0,0 C 0.027,0.029 0.027,0.074 0,0.104 C -0.029,0.133 -0.074,0.133 -0.104,0.104 L -0.535,-0.328 L -0.535,0.109 C -0.535,0.139 -0.561,0.164 -0.59,0.164 C -0.621,0.164 -0.645,0.139 -0.645,0.109 L -0.645,-0.334 L -1.654,-1.344 L -2.51,-1.344 C -2.51,-1.344 -1.619,-0.453 -1.566,-0.398 C -1.512,-0.346 -1.51,-0.26 -1.51,-0.26 L -1.51,0.219 L -0.775,0.801 L -0.268,0.801 C -0.238,0.801 -0.215,0.822 -0.215,0.852 C -0.215,0.879 -0.238,0.906 -0.268,0.906 L -0.758,0.906 L -0.289,1.291 C -0.262,1.318 -0.258,1.359 -0.285,1.387 C -0.313,1.414 -0.357,1.414 -0.385,1.387 L -1.117,0.801 L -1.117,1.629 C -1.117,1.666 -1.145,1.693 -1.182,1.693 C -1.219,1.693 -1.248,1.666 -1.248,1.629 L -1.248,0.703 L -1.604,0.402 L -1.604,0.938 C -1.604,0.986 -1.643,1.029 -1.691,1.029 C -1.742,1.029 -1.783,0.986 -1.783,0.938 L -1.783,-0.152 L -3.537,-1.908 L -3.305,-2.139 L -2.783,-1.617 L -0.625,-1.617 C -0.566,-1.617 -0.52,-1.57 -0.52,-1.512 C -0.52,-1.453 -0.566,-1.404 -0.625,-1.404 L -1.41,-1.408 L -1.014,-1.012 L -0.291,-1.012 C -0.246,-1.012 -0.209,-0.977 -0.209,-0.932 C -0.209,-0.885 -0.244,-0.85 -0.291,-0.848 L -0.852,-0.848 L 0,0 z"
         style="fill:#231f20;fill-opacity:1;fill-rule:nonzero;stroke:none"
         id="path7740" />
    </g>
  </g>
</svg>
